<?xml version="1.0" standalone="no"?>
<!DOCTYPE svg PUBLIC "-//W3C//DTD SVG 20010904//EN"
 "http://www.w3.org/TR/2001/REC-SVG-20010904/DTD/svg10.dtd">
<svg version="1.0" xmlns="http://www.w3.org/2000/svg"
 width="408.000000pt" height="433.000000pt" viewBox="0 0 408.000000 433.000000"
 preserveAspectRatio="xMidYMid meet">

<g transform="translate(0.000000,433.000000) scale(0.100000,-0.100000)"
fill="#000000" stroke="none">
<path d="M0 2165 l0 -2165 2040 0 2040 0 0 2165 0 2165 -2040 0 -2040 0 0
-2165z m1218 1646 c24 -5 49 -17 57 -27 12 -16 14 -164 15 -970 0 -1040 -2
-1011 58 -1066 46 -43 80 -48 321 -48 215 0 228 1 265 23 52 29 74 61 86 126
6 34 10 394 10 965 0 566 4 924 10 945 5 19 15 38 22 43 7 4 108 8 225 8 l212
0 20 -26 c21 -26 21 -35 21 -583 l0 -557 -341 -589 c-188 -325 -434 -752 -547
-950 -113 -198 -209 -364 -214 -370 -13 -14 -5 6 111 274 55 129 99 236 98
238 -2 1 -75 5 -163 9 -207 8 -289 24 -391 74 -107 53 -185 129 -235 230 -71
144 -69 122 -75 1127 -5 864 -2 1072 17 1104 13 21 334 36 418 20z m1982 -281
c-61 -139 -110 -256 -110 -259 0 -3 14 -14 30 -23 l30 -17 0 -1241 0 -1241
-25 -25 -25 -25 -206 3 c-202 3 -206 3 -225 27 -18 22 -19 53 -19 974 l0 950
257 446 c141 245 288 501 326 569 38 68 71 121 73 119 2 -2 -46 -117 -106
-257z"/>
</g>
</svg>
